from mido import Message, MidiFile, MidiTrack, MetaMessage

mid = MidiFile()
track = MidiTrack()
mid.tracks.append(track)
track.append(Message('note_on', channel=0, note=60, velocity=61, time=1024))
track.append(Message('note_on', channel=0, note=64, velocity=57, time=256))
track.append(Message('note_on', channel=0, note=67, velocity=56, time=256))
track.append(Message('note_off', channel=0, note=67, velocity=0, time=256))
track.append(Message('note_on', channel=0, note=72, velocity=60, time=0))
track.append(Message('note_off', channel=0, note=72, velocity=0, time=256))
track.append(Message('note_on', channel=0, note=76, velocity=63, time=0))
track.append(Message('note_off', channel=0, note=76, velocity=0, time=256))
track.append(Message('note_on', channel=0, note=67, velocity=50, time=0))
track.append(Message('note_off', channel=0, note=67, velocity=0, time=256))
track.append(Message('note_on', channel=0, note=72, velocity=47, time=0))
track.append(Message('note_off', channel=0, note=72, velocity=0, time=256))
track.append(Message('note_on', channel=0, note=76, velocity=47, time=0))
track.append(Message('note_off', channel=0, note=60, velocity=0, time=256))
track.append(Message('note_off', channel=0, note=64, velocity=0, time=0))
track.append(Message('note_off', channel=0, note=76, velocity=0, time=0))
track.append(Message('note_on', channel=0, note=60, velocity=62, time=0))
# track.append(Message('note_on', channel=0, note=64, velocity=57, time=256))
# track.append(Message('note_on', channel=0, note=67, velocity=56, time=256))
# track.append(Message('note_off', channel=0, note=67, velocity=0, time=256))
# track.append(Message('note_on', channel=0, note=72, velocity=60, time=0))
# track.append(Message('note_off', channel=0, note=72, velocity=0, time=256))
# track.append(Message('note_on', channel=0, note=76, velocity=62, time=0))
# track.append(Message('note_off', channel=0, note=76, velocity=0, time=256))
# track.append(Message('note_on', channel=0, note=67, velocity=50, time=0))
# track.append(Message('note_off', channel=0, note=67, velocity=0, time=256))
# track.append(Message('note_on', channel=0, note=72, velocity=48, time=0))
# track.append(Message('note_off', channel=0, note=72, velocity=0, time=256))
# track.append(Message('note_on', channel=0, note=76, velocity=48, time=0))
# track.append(Message('note_off', channel=0, note=60, velocity=0, time=256))
# track.append(Message('note_off', channel=0, note=64, velocity=0, time=0))
# track.append(Message('note_off', channel=0, note=76, velocity=0, time=0))
# track.append(Message('note_on', channel=0, note=60, velocity=65, time=0))
# track.append(Message('note_on', channel=0, note=62, velocity=60, time=256))
# track.append(Message('note_on', channel=0, note=69, velocity=56, time=256))
# track.append(Message('note_off', channel=0, note=69, velocity=0, time=256))
# track.append(Message('note_on', channel=0, note=74, velocity=60, time=0))
# track.append(Message('note_off', channel=0, note=74, velocity=0, time=256))
# track.append(Message('note_on', channel=0, note=77, velocity=65, time=0))
# track.append(Message('note_off', channel=0, note=77, velocity=0, time=256))
# track.append(Message('note_on', channel=0, note=69, velocity=51, time=0))
# track.append(Message('note_off', channel=0, note=69, velocity=0, time=256))
# track.append(Message('note_on', channel=0, note=74, velocity=50, time=0))
# track.append(Message('note_off', channel=0, note=74, velocity=0, time=256))
# track.append(Message('note_on', channel=0, note=77, velocity=50, time=0))
# track.append(Message('note_off', channel=0, note=60, velocity=0, time=256))
# track.append(Message('note_off', channel=0, note=62, velocity=0, time=0))
# track.append(Message('note_off', channel=0, note=77, velocity=0, time=0))
# track.append(Message('note_on', channel=0, note=60, velocity=65, time=0))
# track.append(Message('note_on', channel=0, note=62, velocity=60, time=256))
# track.append(Message('note_on', channel=0, note=69, velocity=58, time=256))
# track.append(Message('note_off', channel=0, note=69, velocity=0, time=256))
# track.append(Message('note_on', channel=0, note=74, velocity=60, time=0))
# track.append(Message('note_off', channel=0, note=74, velocity=0, time=256))
# track.append(Message('note_on', channel=0, note=77, velocity=65, time=0))
# track.append(Message('note_off', channel=0, note=77, velocity=0, time=256))
# track.append(Message('note_on', channel=0, note=69, velocity=52, time=0))
# track.append(Message('note_off', channel=0, note=69, velocity=0, time=256))
# track.append(Message('note_on', channel=0, note=74, velocity=50, time=0))
# track.append(Message('note_off', channel=0, note=74, velocity=0, time=256))
# track.append(Message('note_on', channel=0, note=77, velocity=50, time=0))
# track.append(Message('note_off', channel=0, note=60, velocity=0, time=256))
# track.append(Message('note_off', channel=0, note=62, velocity=0, time=0))
# track.append(Message('note_off', channel=0, note=77, velocity=0, time=0))
# track.append(Message('note_on', channel=0, note=59, velocity=65, time=0))
# track.append(Message('note_on', channel=0, note=62, velocity=60, time=256))
# track.append(Message('note_on', channel=0, note=67, velocity=56, time=256))
# track.append(Message('note_off', channel=0, note=67, velocity=0, time=256))
# track.append(Message('note_on', channel=0, note=74, velocity=60, time=0))
# track.append(Message('note_off', channel=0, note=74, velocity=0, time=256))
# track.append(Message('note_on', channel=0, note=77, velocity=65, time=0))


mid.save('new_song.mid')